<svg width="547" height="186" viewBox="0 0 547 186" fill="none" xmlns="http://www.w3.org/2000/svg">
<g filter="url(#filter0_d)">
<path d="M166.143 96.1023V50.2898H175.393V68.321H193.518V50.2898H202.768V96.1023H193.518V76.071H175.393V96.1023H166.143ZM215.593 50.2898H233.905C237.53 50.2898 240.228 50.446 241.999 50.7585C243.791 51.0502 245.384 51.6752 246.78 52.6335C248.197 53.5919 249.374 54.8731 250.311 56.4773C251.249 58.0606 251.718 59.8419 251.718 61.821C251.718 63.9669 251.134 65.9356 249.968 67.7273C248.822 69.5189 247.259 70.8627 245.28 71.7585C248.072 72.571 250.218 73.9564 251.718 75.9148C253.218 77.8731 253.968 80.1752 253.968 82.821C253.968 84.9044 253.478 86.9356 252.499 88.9148C251.541 90.8731 250.218 92.446 248.53 93.6335C246.864 94.8002 244.801 95.5189 242.343 95.7898C240.801 95.9564 237.082 96.0606 231.186 96.1023H215.593V50.2898ZM224.843 57.9148V68.5085H230.905C234.509 68.5085 236.749 68.4564 237.624 68.3523C239.207 68.1648 240.447 67.6231 241.343 66.7273C242.259 65.8106 242.718 64.6127 242.718 63.1335C242.718 61.7169 242.322 60.571 241.53 59.696C240.759 58.8002 239.603 58.2585 238.061 58.071C237.145 57.9669 234.509 57.9148 230.155 57.9148H224.843ZM224.843 76.1335V88.3835H233.405C236.739 88.3835 238.853 88.2898 239.749 88.1023C241.124 87.8523 242.239 87.2481 243.093 86.2898C243.968 85.3106 244.405 84.0085 244.405 82.3835C244.405 81.0085 244.072 79.8419 243.405 78.8835C242.739 77.9252 241.77 77.2273 240.499 76.7898C239.249 76.3523 236.52 76.1335 232.311 76.1335H224.843ZM163.768 155.196L172.768 154.321C173.309 157.342 174.403 159.561 176.049 160.977C177.716 162.394 179.955 163.102 182.768 163.102C185.747 163.102 187.986 162.477 189.486 161.227C191.007 159.956 191.768 158.477 191.768 156.79C191.768 155.706 191.445 154.79 190.799 154.04C190.174 153.269 189.07 152.602 187.486 152.04C186.403 151.665 183.934 150.998 180.08 150.04C175.122 148.811 171.643 147.3 169.643 145.509C166.83 142.988 165.424 139.915 165.424 136.29C165.424 133.956 166.08 131.779 167.393 129.759C168.726 127.717 170.632 126.165 173.111 125.102C175.611 124.04 178.622 123.509 182.143 123.509C187.893 123.509 192.216 124.769 195.111 127.29C198.028 129.811 199.559 133.175 199.705 137.384L190.455 137.79C190.059 135.436 189.205 133.748 187.893 132.727C186.601 131.686 184.653 131.165 182.049 131.165C179.361 131.165 177.257 131.717 175.736 132.821C174.757 133.529 174.268 134.477 174.268 135.665C174.268 136.748 174.726 137.675 175.643 138.446C176.809 139.425 179.643 140.446 184.143 141.509C188.643 142.571 191.966 143.675 194.111 144.821C196.278 145.946 197.966 147.498 199.174 149.477C200.403 151.436 201.018 153.863 201.018 156.759C201.018 159.384 200.289 161.842 198.83 164.134C197.372 166.425 195.309 168.134 192.643 169.259C189.976 170.363 186.653 170.915 182.674 170.915C176.882 170.915 172.434 169.581 169.33 166.915C166.226 164.227 164.372 160.321 163.768 155.196ZM241.311 153.259L250.28 156.102C248.905 161.102 246.614 164.821 243.405 167.259C240.218 169.675 236.166 170.884 231.249 170.884C225.166 170.884 220.166 168.811 216.249 164.665C212.332 160.498 210.374 154.811 210.374 147.602C210.374 139.977 212.343 134.061 216.28 129.852C220.218 125.623 225.395 123.509 231.811 123.509C237.416 123.509 241.968 125.165 245.468 128.477C247.551 130.436 249.114 133.248 250.155 136.915L240.999 139.102C240.457 136.727 239.322 134.852 237.593 133.477C235.884 132.102 233.801 131.415 231.343 131.415C227.947 131.415 225.186 132.634 223.061 135.071C220.957 137.509 219.905 141.456 219.905 146.915C219.905 152.706 220.947 156.831 223.03 159.29C225.114 161.748 227.822 162.977 231.155 162.977C233.614 162.977 235.728 162.196 237.499 160.634C239.27 159.071 240.541 156.613 241.311 153.259ZM261.168 170.102V124.29H270.418V170.102H261.168ZM282.461 170.102V124.29H316.43V132.04H291.711V142.196H314.711V149.915H291.711V162.384H317.305V170.102H282.461ZM328.443 170.102V124.29H337.443L356.193 154.884V124.29H364.786V170.102H355.505L337.036 140.227V170.102H328.443ZM388.111 170.102V132.04H374.518V124.29H410.924V132.04H397.361V170.102H388.111ZM419.843 170.102V124.29H429.093V170.102H419.843ZM441.199 170.102V124.29H472.605V132.04H450.449V142.884H469.574V150.634H450.449V170.102H441.199ZM483.18 170.102V124.29H492.43V170.102H483.18ZM533.786 153.259L542.755 156.102C541.38 161.102 539.089 164.821 535.88 167.259C532.693 169.675 528.641 170.884 523.724 170.884C517.641 170.884 512.641 168.811 508.724 164.665C504.807 160.498 502.849 154.811 502.849 147.602C502.849 139.977 504.818 134.061 508.755 129.852C512.693 125.623 517.87 123.509 524.286 123.509C529.891 123.509 534.443 125.165 537.943 128.477C540.026 130.436 541.589 133.248 542.63 136.915L533.474 139.102C532.932 136.727 531.797 134.852 530.068 133.477C528.359 132.102 526.276 131.415 523.818 131.415C520.422 131.415 517.661 132.634 515.536 135.071C513.432 137.509 512.38 141.456 512.38 146.915C512.38 152.706 513.422 156.831 515.505 159.29C517.589 161.748 520.297 162.977 523.63 162.977C526.089 162.977 528.203 162.196 529.974 160.634C531.745 159.071 533.016 156.613 533.786 153.259Z" fill="url(#paint0_linear)"/>
</g>
<g filter="url(#filter1_d)">
<path d="M15.4552 142.102L115.955 13.1023C122.455 9.60228 111.455 59.6023 97.4552 89.1023C83.9552 112.102 77.9552 121.901 60.9552 131.102C43.9552 140.303 16.9552 146.102 15.4552 142.102Z" fill="url(#paint1_linear)"/>
</g>
<g filter="url(#filter2_d)">
<path d="M112.915 10.4335L9.45521 145.602C4.45523 151.102 3.45328 94.7278 19.7868 68.4216C33.9552 45.6023 53.651 28.9579 76.9552 19.1023C100.259 9.24666 114.955 7.10224 112.915 10.4335Z" fill="url(#paint2_linear)"/>
</g>
<g filter="url(#filter3_d)">
<circle cx="138.955" cy="158.602" r="9.5" stroke="#F8DF00" stroke-width="4"/>
</g>
<g filter="url(#filter4_d)">
<circle cx="138.955" cy="122.602" r="9.5" stroke="#F8DF00" stroke-width="4"/>
</g>
<g filter="url(#filter5_d)">
<circle cx="138.955" cy="86.6023" r="9.5" stroke="#F8DF00" stroke-width="4"/>
</g>
<line x1="104.403" y1="80.3414" x2="117.403" y2="87.3414" stroke="#F8DF00" stroke-width="4"/>
<line x1="86.4034" y1="109.341" x2="112.403" y2="123.341" stroke="#F8DF00" stroke-width="4"/>
<line x1="54.3225" y1="137.49" x2="95.7049" y2="159.773" stroke="#F8DF00" stroke-width="4"/>
<line x1="116.455" y1="87.1023" x2="127.636" y2="87.1023" stroke="#F8DF00" stroke-width="4"/>
<line x1="111.455" y1="123.102" x2="130.455" y2="123.102" stroke="#F8DF00" stroke-width="4"/>
<line x1="94.4552" y1="159.352" x2="130.455" y2="159.352" stroke="#F8DF00" stroke-width="4"/>
<line x1="22.374" y1="121.201" x2="18.9571" y2="82.1459" stroke="#4B6954"/>
<line x1="37.374" y1="100.201" x2="33.9571" y2="61.1459" stroke="#4B6954"/>
<line x1="53.374" y1="80.2013" x2="49.9571" y2="41.1459" stroke="#4B6954"/>
<line x1="32.3752" y1="128.609" x2="69.3752" y2="122.609" stroke="#4B6954"/>
<path d="M48.3752 108.609L85.3752 102.609" stroke="#4B6954"/>
<line x1="61.3752" y1="87.6087" x2="98.3752" y2="81.6087" stroke="#4B6954"/>
<line x1="77.373" y1="69.6091" x2="101.373" y2="65.6091" stroke="#67A35F"/>
<line x1="91.373" y1="49.6091" x2="109.373" y2="46.6091" stroke="#72BD62"/>
<line x1="89.9559" y1="36.1286" x2="88.9559" y2="17.1286" stroke="#69A85F"/>
<line x1="73.2861" y1="54.1207" x2="70.957" y2="26.1438" stroke="#5C8C5C"/>
<defs>
<filter id="filter0_d" x="159.768" y="50.2898" width="386.987" height="128.625" filterUnits="userSpaceOnUse" color-interpolation-filters="sRGB">
<feFlood flood-opacity="0" result="BackgroundImageFix"/>
<feColorMatrix in="SourceAlpha" type="matrix" values="0 0 0 0 0 0 0 0 0 0 0 0 0 0 0 0 0 0 127 0"/>
<feOffset dy="4"/>
<feGaussianBlur stdDeviation="2"/>
<feColorMatrix type="matrix" values="0 0 0 0 0 0 0 0 0 0 0 0 0 0 0 0 0 0 0.25 0"/>
<feBlend mode="normal" in2="BackgroundImageFix" result="effect1_dropShadow"/>
<feBlend mode="normal" in="SourceGraphic" in2="effect1_dropShadow" result="shape"/>
</filter>
<filter id="filter1_d" x="11.4552" y="12.9279" width="110.416" height="138.46" filterUnits="userSpaceOnUse" color-interpolation-filters="sRGB">
<feFlood flood-opacity="0" result="BackgroundImageFix"/>
<feColorMatrix in="SourceAlpha" type="matrix" values="0 0 0 0 0 0 0 0 0 0 0 0 0 0 0 0 0 0 127 0"/>
<feOffset dy="4"/>
<feGaussianBlur stdDeviation="2"/>
<feColorMatrix type="matrix" values="0 0 0 0 0 0 0 0 0 0 0 0 0 0 0 0 0 0 0.25 0"/>
<feBlend mode="normal" in2="BackgroundImageFix" result="effect1_dropShadow"/>
<feBlend mode="normal" in="SourceGraphic" in2="effect1_dropShadow" result="shape"/>
</filter>
<filter id="filter2_d" x="0" y="0" width="117.176" height="162.682" filterUnits="userSpaceOnUse" color-interpolation-filters="sRGB">
<feFlood flood-opacity="0" result="BackgroundImageFix"/>
<feColorMatrix in="SourceAlpha" type="matrix" values="0 0 0 0 0 0 0 0 0 0 0 0 0 0 0 0 0 0 127 0"/>
<feOffset dy="4"/>
<feGaussianBlur stdDeviation="2"/>
<feColorMatrix type="matrix" values="0 0 0 0 0 0 0 0 0 0 0 0 0 0 0 0 0 0 0.25 0"/>
<feBlend mode="normal" in2="BackgroundImageFix" result="effect1_dropShadow"/>
<feBlend mode="normal" in="SourceGraphic" in2="effect1_dropShadow" result="shape"/>
</filter>
<filter id="filter3_d" x="123.455" y="147.102" width="31" height="31" filterUnits="userSpaceOnUse" color-interpolation-filters="sRGB">
<feFlood flood-opacity="0" result="BackgroundImageFix"/>
<feColorMatrix in="SourceAlpha" type="matrix" values="0 0 0 0 0 0 0 0 0 0 0 0 0 0 0 0 0 0 127 0"/>
<feOffset dy="4"/>
<feGaussianBlur stdDeviation="2"/>
<feColorMatrix type="matrix" values="0 0 0 0 0 0 0 0 0 0 0 0 0 0 0 0 0 0 0.25 0"/>
<feBlend mode="normal" in2="BackgroundImageFix" result="effect1_dropShadow"/>
<feBlend mode="normal" in="SourceGraphic" in2="effect1_dropShadow" result="shape"/>
</filter>
<filter id="filter4_d" x="123.455" y="111.102" width="31" height="31" filterUnits="userSpaceOnUse" color-interpolation-filters="sRGB">
<feFlood flood-opacity="0" result="BackgroundImageFix"/>
<feColorMatrix in="SourceAlpha" type="matrix" values="0 0 0 0 0 0 0 0 0 0 0 0 0 0 0 0 0 0 127 0"/>
<feOffset dy="4"/>
<feGaussianBlur stdDeviation="2"/>
<feColorMatrix type="matrix" values="0 0 0 0 0 0 0 0 0 0 0 0 0 0 0 0 0 0 0.25 0"/>
<feBlend mode="normal" in2="BackgroundImageFix" result="effect1_dropShadow"/>
<feBlend mode="normal" in="SourceGraphic" in2="effect1_dropShadow" result="shape"/>
</filter>
<filter id="filter5_d" x="123.455" y="75.1023" width="31" height="31" filterUnits="userSpaceOnUse" color-interpolation-filters="sRGB">
<feFlood flood-opacity="0" result="BackgroundImageFix"/>
<feColorMatrix in="SourceAlpha" type="matrix" values="0 0 0 0 0 0 0 0 0 0 0 0 0 0 0 0 0 0 127 0"/>
<feOffset dy="4"/>
<feGaussianBlur stdDeviation="2"/>
<feColorMatrix type="matrix" values="0 0 0 0 0 0 0 0 0 0 0 0 0 0 0 0 0 0 0.25 0"/>
<feBlend mode="normal" in2="BackgroundImageFix" result="effect1_dropShadow"/>
<feBlend mode="normal" in="SourceGraphic" in2="effect1_dropShadow" result="shape"/>
</filter>
<linearGradient id="paint0_linear" x1="166.741" y1="136.102" x2="541.177" y2="139.207" gradientUnits="userSpaceOnUse">
<stop stop-color="#7ED665"/>
<stop offset="1" stop-color="#499859"/>
</linearGradient>
<linearGradient id="paint1_linear" x1="67.5292" y1="12.1023" x2="67.5292" y2="142.132" gradientUnits="userSpaceOnUse">
<stop stop-color="#91FF6A"/>
<stop offset="1" stop-color="#4F7058"/>
</linearGradient>
<linearGradient id="paint2_linear" x1="100.455" y1="-5.8976" x2="37.4552" y2="98.1024" gradientUnits="userSpaceOnUse">
<stop stop-color="#88EC68"/>
<stop offset="1" stop-color="#527559"/>
</linearGradient>
</defs>
</svg>
